<svg width="25" height="25" viewBox="0 0 25 25" fill="none" xmlns="http://www.w3.org/2000/svg">
<path d="M15.625 22.9167V18.75C15.7699 17.4451 15.3958 16.1355 14.5833 15.1042C17.7083 15.1042 20.8333 13.0208 20.8333 9.375C20.9167 8.07292 20.5521 6.79167 19.7917 5.72917C20.0833 4.53125 20.0833 3.28125 19.7917 2.08333C19.7917 2.08333 18.75 2.08333 16.6667 3.64583C13.9167 3.125 11.0833 3.125 8.33334 3.64583C6.25 2.08333 5.20834 2.08333 5.20834 2.08333C4.89584 3.28125 4.89584 4.53125 5.20834 5.72917C4.44987 6.78738 4.08175 8.07582 4.16667 9.375C4.16667 13.0208 7.29167 15.1042 10.4167 15.1042C10.0104 15.6146 9.70834 16.1979 9.53125 16.8229C9.35417 17.4479 9.30209 18.1042 9.375 18.75V22.9167" stroke="#CBD5E1" stroke-width="2" stroke-linecap="round" stroke-linejoin="round"/>
<path d="M9.375 18.75C4.67709 20.8333 4.16667 16.6667 2.08334 16.6667" stroke="#CBD5E1" stroke-width="2" stroke-linecap="round" stroke-linejoin="round"/>
</svg>
